<?xml version="1.0" encoding="utf-8"?>
<!-- Generator: Adobe Illustrator 16.0.4, SVG Export Plug-In . SVG Version: 6.00 Build 0)  -->
<!DOCTYPE svg PUBLIC "-//W3C//DTD SVG 1.1//EN" "http://www.w3.org/Graphics/SVG/1.1/DTD/svg11.dtd">
<svg version="1.1" id="Layer_1" xmlns="http://www.w3.org/2000/svg" xmlns:xlink="http://www.w3.org/1999/xlink" x="0px" y="0px"
	 width="199.5px" height="36px" viewBox="0 0 199.5 36" enable-background="new 0 0 199.5 36" xml:space="preserve">
<g id="Layer_1_1_" display="none">
	<path display="inline" fill="#7CC256" d="M23.521,1.399c-5.081,8.4-9.101,4.269-14.98,10.31C3.352,17.04,5.151,23.46,9.52,25.671
		c4.312-2.203,8.724-7.13,11.996-14.262c0,0,2.94,9.006-6.066,17.684c4.374,5.122,11.797,1.56,13.872-6.591
		C31.575,13.642,25.696,4.621,23.521,1.399z M4.839,30.49c0.003,0.088,0.103,1.738,2.269,1.738c1.576,0,9.569-4.355,13.677-15.667
		C14.569,27.562,5.547,30.291,4.839,30.49z"/>
	<path display="inline" fill="#3D76C9" d="M33.9,20.582c0.53,0.305,1.325,0.568,2.159,0.568c1.046,0,1.629-0.489,1.629-1.219
		c0-0.681-0.45-1.072-1.589-1.482c-1.47-0.53-2.411-1.311-2.411-2.596c0-1.457,1.219-2.57,3.152-2.57
		c0.967,0,1.682,0.212,2.146,0.451l-0.397,1.311c-0.318-0.172-0.94-0.424-1.775-0.424c-1.033,0-1.483,0.556-1.483,1.073
		c0,0.689,0.517,1.007,1.708,1.47c1.55,0.583,2.305,1.363,2.305,2.648c0,1.432-1.086,2.677-3.391,2.677
		c-0.94,0-1.92-0.267-2.411-0.558L33.9,20.582z"/>
	<path display="inline" fill="#3D76C9" d="M42.441,13.43v8.927h-1.629V13.43H42.441z"/>
	<path display="inline" fill="#3D76C9" d="M46.016,14.794h-2.543V13.43h6.741v1.364h-2.569v7.562h-1.629V14.794z"/>
	<path display="inline" fill="#3D76C9" d="M56.251,18.396h-3.364v2.622h3.762v1.338h-5.391V13.43h5.191v1.337h-3.562v2.305h3.364
		V18.396z"/>
	<g display="inline">
		<path fill="#3D76C9" d="M60.816,13.43h1.629v7.562h3.67v1.363h-5.299V13.43z"/>
		<path fill="#3D76C9" d="M74.748,17.8c0,2.994-1.814,4.702-4.277,4.702c-2.517,0-4.104-1.92-4.104-4.543
			c0-2.741,1.722-4.675,4.236-4.675C73.212,13.284,74.748,15.257,74.748,17.8z M68.086,17.933c0,1.814,0.914,3.258,2.479,3.258
			c1.574,0,2.463-1.457,2.463-3.324c0-1.682-0.834-3.271-2.463-3.271C68.947,14.595,68.086,16.092,68.086,17.933z"/>
		<path fill="#3D76C9" d="M83.302,21.945c-0.569,0.213-1.683,0.504-2.874,0.504c-1.51,0-2.648-0.385-3.496-1.192
			c-0.795-0.755-1.259-1.934-1.246-3.284c0-2.821,2.019-4.636,4.967-4.636c1.104,0,1.965,0.225,2.371,0.424l-0.354,1.311
			c-0.488-0.212-1.086-0.384-2.023-0.384c-1.905,0-3.244,1.125-3.244,3.205c0,2.027,1.244,3.232,3.1,3.232
			c0.583,0,1.021-0.08,1.23-0.186V18.71h-1.58v-1.28h3.149V21.945L83.302,21.945z"/>
		<path fill="#3D76C9" d="M92.887,17.8c0,2.994-1.812,4.702-4.277,4.702c-2.517,0-4.104-1.92-4.104-4.543
			c0-2.741,1.725-4.675,4.238-4.675C91.352,13.284,92.887,15.257,92.887,17.8z M86.225,17.933c0,1.814,0.914,3.258,2.479,3.258
			c1.573,0,2.463-1.457,2.463-3.324c0-1.682-0.834-3.271-2.463-3.271C87.086,14.595,86.225,16.092,86.225,17.933z"/>
	</g>
</g>
<g>
	<path fill="#F4F4F4" d="M1,26.221V11.486h2.351l6.216,13.37l6.306-13.37h2.162v14.735H16.59l0.06-13.471l-6.246,13.471H8.711
		L2.306,12.749l0.149,13.469L1,26.221L1,26.221z"/>
	<path fill="#F4F4F4" d="M38.256,18.857c0,2.403-0.691,4.297-2.072,5.679c-1.381,1.381-3.274,2.071-5.678,2.071
		c-2.411,0-4.304-0.69-5.678-2.071c-1.375-1.382-2.062-3.274-2.062-5.679c0-2.412,0.688-4.308,2.062-5.688
		c1.374-1.382,3.267-2.072,5.678-2.072c2.404,0,4.297,0.69,5.678,2.072S38.256,16.447,38.256,18.857z M30.506,25.184
		c1.945,0,3.471-0.562,4.577-1.684s1.659-2.67,1.659-4.643c0-1.979-0.553-3.528-1.659-4.647s-2.632-1.679-4.577-1.679
		c-1.953,0-3.482,0.56-4.588,1.679c-1.105,1.119-1.658,2.668-1.658,4.647c0,1.973,0.553,3.52,1.658,4.643
		C27.024,24.622,28.553,25.184,30.506,25.184z"/>
	<path fill="#F4F4F4" d="M42.417,21.368h1.484v0.08c0,1.122,0.425,2.022,1.275,2.7c0.85,0.677,1.982,1.017,3.396,1.017
		c1.402,0,2.514-0.274,3.338-0.823c0.823-0.548,1.235-1.283,1.235-2.205c0-0.705-0.237-1.238-0.712-1.6s-1.463-0.68-2.963-0.951
		l-3.138-0.549c-1.169-0.2-2.042-0.604-2.62-1.215c-0.578-0.611-0.867-1.431-0.867-2.46c0-1.295,0.504-2.33,1.514-3.104
		c1.009-0.773,2.375-1.16,4.095-1.16c1.779,0,3.179,0.4,4.2,1.2c1.021,0.8,1.553,1.911,1.598,3.333h-1.473
		c-0.094-1.036-0.504-1.825-1.229-2.366c-0.727-0.542-1.745-0.812-3.053-0.812c-1.275,0-2.284,0.254-3.028,0.762
		c-0.744,0.508-1.116,1.198-1.116,2.067c0,0.69,0.259,1.22,0.777,1.589s1.484,0.676,2.899,0.921l2.799,0.488
		c1.338,0.24,2.323,0.662,2.944,1.265s0.934,1.448,0.934,2.531c0,1.421-0.525,2.531-1.578,3.333c-1.053,0.8-2.521,1.2-4.398,1.2
		c-1.959,0-3.5-0.449-4.622-1.346c-1.123-0.896-1.684-2.121-1.684-3.677L42.417,21.368L42.417,21.368z"/>
	<path fill="#F4F4F4" d="M58.025,26.221l6.795-14.734h1.693l6.715,14.734h-1.484l-2.062-4.554h-8.06l-2.082,4.554H58.025z
		 M62.269,20.243h6.755l-3.366-7.532L62.269,20.243z"/>
	<path fill="#F4F4F4" d="M77.351,26.221V11.486h1.475v14.735H77.351L77.351,26.221z"/>
	<path fill="#F4F4F4" d="M96.855,16.308c-0.285-1.209-0.893-2.14-1.822-2.794c-0.931-0.654-2.106-0.981-3.537-0.981
		c-1.932,0-3.453,0.563-4.562,1.688c-1.108,1.126-1.664,2.672-1.664,4.636c0,1.92,0.538,3.451,1.614,4.594
		c1.076,1.143,2.517,1.714,4.322,1.714c1.488,0,2.756-0.403,3.802-1.211c1.046-0.808,1.719-1.896,2.018-3.263h1.563
		c-0.34,1.819-1.166,3.261-2.479,4.324c-1.316,1.062-2.938,1.594-4.863,1.594c-2.265,0-4.073-0.705-5.435-2.112
		c-1.356-1.409-2.036-3.288-2.036-5.64c0-2.411,0.688-4.307,2.062-5.688c1.371-1.383,3.266-2.073,5.676-2.073
		c1.898,0,3.454,0.461,4.663,1.385c1.209,0.923,1.933,2.198,2.172,3.826L96.855,16.308L96.855,16.308z"/>
</g>
<g>
	<path fill="#F4F4F4" d="M124.609,24.916c-0.723,0.586-1.648,1.014-2.778,1.285c-1.129,0.271-2.539,0.408-4.228,0.408
		c-3.56,0-6.246-0.652-8.057-1.957c-1.811-1.307-2.717-3.236-2.717-5.793c0-2.563,0.906-4.499,2.717-5.803
		c1.811-1.305,4.498-1.959,8.057-1.959c2.996,0,5.396,0.47,7.198,1.406c1.806,0.937,2.827,2.235,3.064,3.901h-6.8
		c-0.33-0.601-0.77-1.042-1.314-1.334c-0.545-0.293-1.204-0.438-1.977-0.438c-1.293,0-2.327,0.383-3.107,1.146
		c-0.779,0.764-1.168,1.791-1.168,3.08c0,1.301,0.385,2.312,1.154,3.033c0.768,0.721,1.841,1.08,3.22,1.08
		c1.032,0,1.892-0.175,2.578-0.521c0.687-0.347,1.104-0.814,1.256-1.416h-2.578v-3.188h8.943v8.37h-2.794L124.609,24.916z"/>
	<path fill="#F4F4F4" d="M148.689,11.487c1.393,0,2.506,0.062,3.346,0.185c0.837,0.123,1.49,0.313,1.959,0.572
		c0.6,0.325,1.057,0.764,1.369,1.311c0.313,0.551,0.472,1.184,0.472,1.897c0,0.87-0.235,1.636-0.704,2.296
		c-0.469,0.661-1.115,1.139-1.938,1.43c0.707,0.271,1.205,0.609,1.488,1.014c0.284,0.4,0.452,1.109,0.504,2.127
		c0.006,0.111,0.015,0.271,0.021,0.47c0.103,1.93,0.383,2.996,0.845,3.207v0.229h-6.896c-0.209-0.312-0.324-0.918-0.348-1.812
		c-0.014-0.522-0.039-0.931-0.076-1.215c-0.063-0.539-0.26-0.919-0.588-1.138c-0.328-0.221-0.879-0.328-1.649-0.328h-3.703v4.492
		h-6.29V11.487H148.689z M142.788,17.852h3.616c0.945,0,1.611-0.103,1.998-0.31c0.387-0.205,0.578-0.553,0.578-1.035
		c0-0.479-0.182-0.812-0.545-1.002c-0.365-0.188-1.094-0.283-2.182-0.283h-3.466V17.852z"/>
	<path fill="#F4F4F4" d="M163.912,26.221V11.487h6.203v14.734H163.912z"/>
	<path fill="#F4F4F4" d="M179.036,11.466h10.266c3.32,0,5.851,0.629,7.591,1.889c1.738,1.259,2.607,3.093,2.607,5.504
		c0,2.404-0.866,4.231-2.6,5.481c-1.73,1.252-4.267,1.88-7.602,1.88h-10.263V11.466z M185.24,15.123v7.184h3.086
		c1.609,0,2.763-0.277,3.459-0.842c0.695-0.562,1.047-1.479,1.047-2.754c0-1.27-0.354-2.185-1.057-2.745
		c-0.705-0.562-1.854-0.844-3.45-0.844L185.24,15.123L185.24,15.123z"/>
</g>
</svg>
